<?xml version="1.0" encoding="UTF-8" standalone="yes"?><svg xmlns="http://www.w3.org/2000/svg" xmlns:xlink="http://www.w3.org/1999/xlink" height="442px" style="width:721px;height:442px;" version="1.1" viewBox="0 0 721 442" width="721px"><defs><filter height="300%" id="f1" width="300%" x="-1" y="-1"><feGaussianBlur result="blurOut" stdDeviation="2.0"/><feColorMatrix in="blurOut" result="blurOut2" type="matrix" values="0 0 0 0 0 0 0 0 0 0 0 0 0 0 0 0 0 0 .4 0"/><feOffset dx="4.0" dy="4.0" in="blurOut2" result="blurOut3"/><feBlend in="SourceGraphic" in2="blurOut3" mode="normal"/></filter></defs><g><ellipse cx="35.5" cy="182" fill="#FEFECE" filter="url(#f1)" rx="8" ry="8" style="stroke: #A80036; stroke-width: 2.0;"/><path d="M35.5,190 L35.5,217 M22.5,198 L48.5,198 M35.5,217 L22.5,232 M35.5,217 L48.5,232 " fill="#FEFECE" filter="url(#f1)" style="stroke: #A80036; stroke-width: 2.0;"/><text fill="#000000" font-family="sans-serif" font-size="14" lengthAdjust="spacingAndGlyphs" textLength="59" x="6" y="251.9951">Nutzer 1</text><ellipse cx="690.5" cy="242" fill="#FEFECE" filter="url(#f1)" rx="8" ry="8" style="stroke: #A80036; stroke-width: 2.0;"/><path d="M690.5,250 L690.5,277 M677.5,258 L703.5,258 M690.5,277 L677.5,292 M690.5,277 L703.5,292 " fill="#FEFECE" filter="url(#f1)" style="stroke: #A80036; stroke-width: 2.0;"/><text fill="#000000" font-family="sans-serif" font-size="14" lengthAdjust="spacingAndGlyphs" textLength="59" x="661" y="311.9951">Nutzer 2</text><ellipse cx="207.8427" cy="265.2685" fill="#FEFECE" filter="url(#f1)" rx="81.8427" ry="18.7685" style="stroke: #A80036; stroke-width: 1.5;"/><text fill="#000000" font-family="sans-serif" font-size="14" lengthAdjust="spacingAndGlyphs" textLength="135" x="140.3427" y="269.917">Kontakte schreiben</text><ellipse cx="208.06" cy="160.712" fill="#FEFECE" filter="url(#f1)" rx="69.06" ry="16.212" style="stroke: #A80036; stroke-width: 1.5;"/><text fill="#000000" font-family="sans-serif" font-size="14" lengthAdjust="spacingAndGlyphs" textLength="104" x="156.06" y="165.3604">Kontakte lesen</text><ellipse cx="502.1144" cy="258.4229" fill="#FEFECE" filter="url(#f1)" rx="90.1144" ry="20.4229" style="stroke: #A80036; stroke-width: 1.5;"/><text fill="#000000" font-family="sans-serif" font-size="14" lengthAdjust="spacingAndGlyphs" textLength="154" x="425.1144" y="263.0713">Schreibe auf NFC-Chip</text><ellipse cx="502.0638" cy="335.3128" fill="#FEFECE" filter="url(#f1)" rx="94.5638" ry="21.3128" style="stroke: #A80036; stroke-width: 1.5;"/><text fill="#000000" font-family="sans-serif" font-size="14" lengthAdjust="spacingAndGlyphs" textLength="164" x="420.0638" y="339.9612">Schreibe in Adressbuch</text><ellipse cx="501.9095" cy="413.5819" fill="#FEFECE" filter="url(#f1)" rx="95.9095" ry="21.5819" style="stroke: #A80036; stroke-width: 1.5;"/><text fill="#000000" font-family="sans-serif" font-size="14" lengthAdjust="spacingAndGlyphs" textLength="167" x="418.4095" y="418.2303">Sende zu Android Beam</text><ellipse cx="501.8872" cy="29.2774" fill="#FEFECE" filter="url(#f1)" rx="91.8872" ry="20.7774" style="stroke: #A80036; stroke-width: 1.5;"/><text fill="#000000" font-family="sans-serif" font-size="14" lengthAdjust="spacingAndGlyphs" textLength="158" x="422.8872" y="33.9259">Lesen aus Adressbuch</text><ellipse cx="502.0616" cy="104.6123" fill="#FEFECE" filter="url(#f1)" rx="83.5616" ry="19.1123" style="stroke: #A80036; stroke-width: 1.5;"/><text fill="#000000" font-family="sans-serif" font-size="14" lengthAdjust="spacingAndGlyphs" textLength="139" x="432.5616" y="109.2608">Lesen von NFC-Chip</text><ellipse cx="502.1626" cy="180.5325" fill="#FEFECE" filter="url(#f1)" rx="98.1626" ry="22.0325" style="stroke: #A80036; stroke-width: 1.5;"/><text fill="#000000" font-family="sans-serif" font-size="14" lengthAdjust="spacingAndGlyphs" textLength="172" x="416.1626" y="185.181">Lesen von Android Beam</text><path d="M65.0379,222.204 C88.8754,229.474 123.54,240.046 152.647,248.923 " fill="none" style="stroke: #A80036; stroke-width: 1.0;"/><polygon fill="#A80036" points="157.64,250.446,150.1982,243.9947,152.8574,248.9875,147.8646,251.6468,157.64,250.446" style="stroke: #A80036; stroke-width: 1.0;"/><path d="M65.0379,204.629 C91.2235,196.489 130.474,184.288 161.071,174.777 " fill="none" style="stroke: #A80036; stroke-width: 1.0;"/><polygon fill="#A80036" points="165.904,173.275,156.1223,172.1272,161.1294,174.7594,158.4973,179.7665,165.904,173.275" style="stroke: #A80036; stroke-width: 1.0;"/><path d="M289.951,263.559 C326.375,262.686 369.59,261.65 407.399,260.744 " fill="none" style="stroke: #A80036; stroke-width: 1.0; stroke-dasharray: 7.0,7.0;"/><polygon fill="#A80036" points="412.458,260.623,403.3657,256.8376,407.4594,260.7416,403.5554,264.8353,412.458,260.623" style="stroke: #A80036; stroke-width: 1.0;"/><text fill="#000000" font-family="sans-serif" font-size="13" lengthAdjust="spacingAndGlyphs" textLength="52" x="321" y="257.5669">includes</text><path d="M265.647,279.08 C312.948,290.419 380.581,306.632 431.217,318.771 " fill="none" style="stroke: #A80036; stroke-width: 1.0; stroke-dasharray: 7.0,7.0;"/><polygon fill="#A80036" points="436.372,320.007,428.5528,314.0187,431.5098,318.8411,426.6874,321.7981,436.372,320.007" style="stroke: #A80036; stroke-width: 1.0;"/><text fill="#000000" font-family="sans-serif" font-size="13" lengthAdjust="spacingAndGlyphs" textLength="52" x="321" y="287.5669">includes</text><path d="M237.708,283.29 C275.138,306.076 343.034,346.0183 404,374.5 C417.888,380.9881 433.169,387.4398 447.413,393.173 " fill="none" style="stroke: #A80036; stroke-width: 1.0; stroke-dasharray: 7.0,7.0;"/><polygon fill="#A80036" points="452.201,395.0888,445.3325,388.0302,447.5592,393.2304,442.359,395.4571,452.201,395.0888" style="stroke: #A80036; stroke-width: 1.0;"/><text fill="#000000" font-family="sans-serif" font-size="13" lengthAdjust="spacingAndGlyphs" textLength="52" x="321" y="327.5669">includes</text><path d="M236.071,145.833 C258.363,133.941 290.919,116.999 320,103.5 C356.685,86.471 366.57,83.822 404,68.5 C419.092,62.322 435.538,55.677 450.528,49.654 " fill="none" style="stroke: #A80036; stroke-width: 1.0; stroke-dasharray: 7.0,7.0;"/><polygon fill="#A80036" points="455.553,47.636,445.7107,47.2771,450.913,49.4989,448.6913,54.7012,455.553,47.636" style="stroke: #A80036; stroke-width: 1.0;"/><text fill="#000000" font-family="sans-serif" font-size="13" lengthAdjust="spacingAndGlyphs" textLength="52" x="321" y="76.5669">includes</text><path d="M261.879,150.359 C309.722,141.183 380.463,127.617 432.596,117.619 " fill="none" style="stroke: #A80036; stroke-width: 1.0; stroke-dasharray: 7.0,7.0;"/><polygon fill="#A80036" points="437.582,116.662,427.9899,114.4278,432.6714,117.6033,429.4959,122.2848,437.582,116.662" style="stroke: #A80036; stroke-width: 1.0;"/><text fill="#000000" font-family="sans-serif" font-size="13" lengthAdjust="spacingAndGlyphs" textLength="52" x="321" y="124.5669">includes</text><path d="M274.53,164.988 C312.34,167.578 360.62,170.885 402.881,173.78 " fill="none" style="stroke: #A80036; stroke-width: 1.0; stroke-dasharray: 7.0,7.0;"/><polygon fill="#A80036" points="408.004,174.13,399.2994,169.5223,403.0158,173.7872,398.7509,177.5035,408.004,174.13" style="stroke: #A80036; stroke-width: 1.0;"/><text fill="#000000" font-family="sans-serif" font-size="13" lengthAdjust="spacingAndGlyphs" textLength="52" x="321" y="163.5669">includes</text><path d="M208,181.636 C208,198.826 208,223.097 208,241.109 " fill="none" style="stroke: #A80036; stroke-width: 1.0; stroke-dasharray: 7.0,7.0;"/><polygon fill="#A80036" points="208,246.241,212,237.241,208,241.241,204,237.241,208,246.241" style="stroke: #A80036; stroke-width: 1.0;"/><polygon fill="#A80036" points="208,176.544,204,185.544,208,181.544,212,185.544,208,176.544" style="stroke: #A80036; stroke-width: 1.0;"/><text fill="#000000" font-family="sans-serif" font-size="13" lengthAdjust="spacingAndGlyphs" textLength="51" x="171" y="216.0669">extends</text><path d="M557.663,201.435 C571.643,207.225 586.528,213.777 600,220.5 C619.052,230.008 639.542,242.002 656.102,252.174 " fill="none" style="stroke: #A80036; stroke-width: 1.0;"/><polygon fill="#A80036" points="660.664,254.991,655.1081,246.8588,656.4098,252.3639,650.9047,253.6656,660.664,254.991" style="stroke: #A80036; stroke-width: 1.0;"/><polygon fill="#A80036" points="552.959,199.502,559.7635,206.6223,557.5838,201.4022,562.8039,199.2225,552.959,199.502" style="stroke: #A80036; stroke-width: 1.0;"/><path d="M563.537,394.2054 C576.159,388.8262 588.967,382.2766 600,374.5 C621.72,359.1903 641.762,337.6207 657.35,318.343 " fill="none" style="stroke: #A80036; stroke-width: 1.0;"/><polygon fill="#A80036" points="660.809,314.013,652.0673,318.5498,657.689,317.9201,658.3187,323.5418,660.809,314.013" style="stroke: #A80036; stroke-width: 1.0;"/><polygon fill="#A80036" points="558.9,396.1344,568.746,396.3717,563.5167,394.2144,565.6739,388.985,558.9,396.1344" style="stroke: #A80036; stroke-width: 1.0;"/></g></svg>